<?xml version="1.0" encoding="utf-8"?>
<!-- Generator: Adobe Illustrator 15.1.0, SVG Export Plug-In . SVG Version: 6.00 Build 0)  -->
<!DOCTYPE svg PUBLIC "-//W3C//DTD SVG 1.1//EN" "http://www.w3.org/Graphics/SVG/1.1/DTD/svg11.dtd">
<svg version="1.1" id="レイヤー_1" xmlns="http://www.w3.org/2000/svg" xmlns:xlink="http://www.w3.org/1999/xlink" x="0px"
	 y="0px" width="55px" height="44px" viewBox="0 0 55 44" enable-background="new 0 0 55 44" xml:space="preserve">
<g>
	<g>
		
			<linearGradient id="SVGID_1_" gradientUnits="userSpaceOnUse" x1="708" y1="-1044.874" x2="739.7236" y2="-1044.874" gradientTransform="matrix(1 0 0 -1 -708 -1028)">
			<stop  offset="0" style="stop-color:#1E92D2"/>
			<stop  offset="1" style="stop-color:#002C76"/>
		</linearGradient>
		<path fill="url(#SVGID_1_)" d="M28.417,16.667c0,3.494,4.271,6.949,2.45,9.642c-3.034,4.488-8.17,7.439-13.994,7.439
			C7.556,33.748,0,26.193,0,16.875C0,7.556,7.556,0,16.873,0C23.07,0,28.49,3.342,31.425,8.322
			C32.902,10.83,28.417,13.545,28.417,16.667z"/>
		
			<linearGradient id="SVGID_2_" gradientUnits="userSpaceOnUse" x1="481.584" y1="763.874" x2="527" y2="763.874" gradientTransform="matrix(1 0 0 1 -472 -747)">
			<stop  offset="0" style="stop-color:#BBBBDD"/>
			<stop  offset="1" style="stop-color:#22569C"/>
		</linearGradient>
		<path fill="url(#SVGID_2_)" d="M38.126,0C30.598,0,24.223,4.931,22.05,11.737c-1.322-1.33-3.151-2.154-5.177-2.154
			c-4.025,0-7.289,3.265-7.289,7.292s3.264,7.291,7.289,7.291c2.025,0,3.854-0.824,5.177-2.155
			c2.173,6.808,8.548,11.737,16.076,11.737C47.445,33.748,55,26.193,55,16.875C55,7.556,47.445,0,38.126,0z M38.125,9.584
			c4.027,0,7.291,3.264,7.291,7.291s-3.264,7.291-7.291,7.291s-7.291-3.264-7.291-7.291S34.098,9.584,38.125,9.584z"/>
	</g>
	<g>
		<path fill="#595757" d="M2.231,44c-1.278,0-2.224-1.014-2.224-2.299v-0.014c0-1.267,0.945-2.312,2.236-2.312
			c0.798,0,1.279,0.293,1.74,0.713l-0.24,0.244c-0.387-0.377-0.837-0.658-1.506-0.658c-1.074,0-1.885,0.875-1.885,2v0.014
			c0,1.131,0.824,2.013,1.891,2.013c0.646,0,1.088-0.248,1.539-0.695l0.225,0.218C3.535,43.688,3.024,44,2.231,44z"/>
		<path fill="#595757" d="M4.967,43.924v-4.471H5.3v4.471H4.967z"/>
		<path fill="#595757" d="M9.889,43.924l-1.422-1.852H7.004v1.852H6.67v-4.471h1.879c0.964,0,1.596,0.523,1.596,1.27v0.014
			c0,0.748-0.555,1.179-1.309,1.277l1.477,1.91H9.889z M9.813,40.736c0-0.603-0.472-0.979-1.283-0.979H7.004v2.013h1.509
			c0.743,0,1.301-0.377,1.301-1.021L9.813,40.736L9.813,40.736z"/>
		<path fill="#595757" d="M13.315,44c-1.278,0-2.226-1.014-2.226-2.299v-0.014c0-1.267,0.947-2.312,2.236-2.312
			c0.801,0,1.277,0.293,1.738,0.713l-0.236,0.244c-0.39-0.377-0.838-0.658-1.508-0.658c-1.073,0-1.883,0.875-1.883,2v0.014
			c0,1.131,0.822,2.013,1.889,2.013c0.645,0,1.085-0.248,1.538-0.695l0.225,0.218C14.617,43.688,14.104,44,13.315,44z"/>
		<path fill="#595757" d="M16.002,43.924v-4.471h0.332v4.164h2.625v0.307H16.002z"/>
		<path fill="#595757" d="M19.956,43.924v-4.471h3.18v0.305h-2.849v1.758h2.564v0.31h-2.564v1.795h2.88v0.307L19.956,43.924
			L19.956,43.924z"/>
		<path fill="#595757" d="M29.887,43.924l-0.566-1.252h-2.639l-0.567,1.252H25.77l2.08-4.504h0.32l2.084,4.504H29.887z
			 M28.001,39.785l-1.179,2.586h2.355L28.001,39.785z"/>
		<path fill="#595757" d="M34.415,43.924l-1.424-1.852h-1.462v1.852h-0.334v-4.471h1.879c0.965,0,1.599,0.523,1.599,1.27v0.014
			c0,0.748-0.556,1.179-1.312,1.277l1.477,1.91H34.415z M34.34,40.736c0-0.603-0.475-0.979-1.283-0.979h-1.527v2.013h1.509
			c0.747,0,1.304-0.377,1.304-1.021L34.34,40.736L34.34,40.736z"/>
		<path fill="#595757" d="M37.859,44c-1.355,0-2.242-1.08-2.242-2.299v-0.014c0-1.224,0.9-2.312,2.256-2.312
			c1.354,0,2.24,1.078,2.24,2.299c0.008,0.008,0.008,0.008,0,0.014C40.113,42.908,39.213,44,37.859,44z M39.771,41.688
			c0-1.104-0.81-2.012-1.91-2.012c-1.106,0-1.898,0.895-1.898,2v0.012c0,1.105,0.805,2.015,1.911,2.015
			c1.103,0,1.897-0.896,1.897-1.998V41.688z"/>
		<path fill="#595757" d="M43.007,43.994c-1.073,0-1.833-0.678-1.833-1.93v-2.611h0.331v2.58c0,1.053,0.569,1.66,1.515,1.66
			c0.907,0,1.489-0.549,1.489-1.629v-2.611h0.331v2.574C44.84,43.311,44.094,43.994,43.007,43.994z"/>
		<path fill="#595757" d="M49.566,43.924l-3.148-3.973v3.973h-0.32v-4.471h0.313l3.086,3.889v-3.889h0.319v4.471H49.566z"/>
		<path fill="#595757" d="M52.633,43.924h-1.49v-4.471h1.49c1.404,0,2.375,0.963,2.375,2.223v0.012
			C55.008,42.945,54.037,43.924,52.633,43.924z M54.663,41.688c0-1.061-0.787-1.93-2.03-1.93h-1.156v3.859h1.156
			c1.243,0,2.03-0.852,2.03-1.916V41.688z"/>
	</g>
</g>
</svg>
